{"title":"MikesApartment Romanian Angelica Black **[NEW]** 21 Aug. 2014","uid":10831034,"size":626662322,"categoryP":"porn","categoryS":"movies","magnet":"?xt=urn:btih:cc1cc159591e912507a532c80c1851c5be12e194&amp;dn=MikesApartment+Romanian+Angelica+Black+%2A%2A%5BNEW%5D%2A%2A+21+Aug.+2014&amp;tr=udp%3A%2F%2Ftracker.openbittorrent.com%3A80&amp;tr=udp%3A%2F%2Fopen.demonii.com%3A1337&amp;tr=udp%3A%2F%2Ftracker.coppersurfer.tk%3A6969&amp;tr=udp%3A%2F%2Fexodus.desync.com%3A6969","seeders":0,"leechers":2,"uploader":"iH2OSO4","files":-1,"time":1408581104,"description":"MikesApartment Romanian Angelica Black **[NEW]** 21 Aug. 2014\nJames came with his friend , the lovely, Angelika. This sexy Romanian hottie,was looking succulent in those tiny shorts. After the negotiations were made,she undressed and revealed her amazing body. She had big juicy tits and around luscious ass. She took a quick shower and came back in a hot lingerieoutfit. It was not long until she was spread open and getting her pussy munched.She deep throated that cock and did a great job.She jumped on that dick andgot her pussy pounded. Then, she grabbed his cock and stuffed it in her tightasshole. She loved playing with her pussy as she got her ass drilled. She gotbutter milk all over her magnificent body.\n\nSOURCE :    &lt;a href=&quot; http://nuscotower.com/i/viorix656g.html&quot; rel=&quot;nofollow&quot; target=&quot;_NEW&quot;&gt; http://nuscotower.com/i/viorix656g.html&lt;/a&gt;\n\nGeneral\nMikesApartment.Romanian.Angelica.Black.XXX.21.August.2014-ViK.mp4\nFormat                           : MPEG-4\nFormat profile                   : Base Media\nCodec ID                         : isom\nFile size                        : 595 MiB\nDuration                         : 40mn 34s\nOverall bit rate                 : 2 051 Kbps\nEncoded date                     : UTC 2014-08-21 09:05:56\nTagged date                      : UTC 2014-08-21 09:05:56\n\nVideo\nID                               : 1\nFormat                           : MPEG-4 Visual\nFormat profile                   : Simple@L1\nFormat settings, BVOP            : No\nFormat settings, QPel            : No\nFormat settings, GMC             : No warppoints\nFormat settings, Matrix          : Default (H.263)\nCodec ID                         : 20\nDuration                         : 40mn 34s\nBit rate mode                    : Variable\nBit rate                         : 1 939 Kbps\nMaximum bit rate                 : 4 035 Kbps\nWidth                            : 728 pixels\nHeight                           : 408 pixels\nDisplay aspect ratio             : 16:9\nFrame rate mode                  : Constant\nFrame rate                       : 29.970 fps\nColor space                      : YUV\nChroma subsampling               : 4:2:0\nBit depth                        : 8 bits\nScan type                        : Progressive\nCompression mode                 : Lossy\nBits/(Pixel*Frame)               : 0.218\nStream size                      : 563 MiB (95%)\nWriting library                  : Lavc53.8.0\nEncoded date                     : UTC 2014-08-21 09:05:56\nTagged date                      : UTC 2014-08-21 09:06:17\n\nAudio\nID                               : 2\nFormat                           : AAC\nFormat/Info                      : Advanced Audio Codec\nFormat profile                   : LC\nCodec ID                         : 40\nDuration                         : 40mn 34s\nBit rate mode                    : Variable\nBit rate                         : 109 Kbps\nMaximum bit rate                 : 195 Kbps\nChannel(s)                       : 2 channels\nChannel positions                : Front: L R\nSampling rate                    : 44.1 KHz\nCompression mode                 : Lossy\nStream size                      : 31.7 MiB (5%)\nEncoded date                     : UTC 2014-08-21 09:06:12\nTagged date                      : UTC 2014-08-21 09:06:17\n","torrent":{"xt":"urn:btih:cc1cc159591e912507a532c80c1851c5be12e194","amp;dn":"MikesApartment+Romanian+Angelica+Black+%2A%2A%5BNEW%5D%2A%2A+21+Aug.+2014","amp;tr":["udp%3A%2F%2Ftracker.openbittorrent.com%3A80","udp%3A%2F%2Fopen.demonii.com%3A1337","udp%3A%2F%2Ftracker.coppersurfer.tk%3A6969","udp%3A%2F%2Fexodus.desync.com%3A6969"],"infoHash":"cc1cc159591e912507a532c80c1851c5be12e194","infoHashBuffer":{"type":"Buffer","data":[204,28,193,89,89,30,145,37,7,165,50,200,12,24,81,197,190,18,225,148]},"announce":[],"urlList":[]}}